<?xml version="1.0" standalone="no"?><!DOCTYPE svg PUBLIC "-//W3C//DTD SVG 1.0//EN"
  "http://www.w3.org/TR/2001/REC-SVG-20010904/DTD/svg10.dtd"><svg xmlns="http://www.w3.org/2000/svg" xmlns:xlink="http://www.w3.org/1999/xlink" id="body_1" viewBox="0 0 64 64"><g transform="matrix(1 0 0 1 0 0)"><path d="M22.5-.5h8c4.03 2.053 6.03 5.387 6 10 10.687-1.132 16.187 3.534 16.5 14-2 2.667-4 2.667-6 0-.233-2.28-1.066-4.28-2.5-6-4.48-1.638-9.147-2.472-14-2.5-1.333-2-1.333-4 0-6-2.928-4.71-5.595-4.543-8 .5 2 5.334.333 7-5 5-2.415-6.477-.749-11.477 5-15z" fill-opacity="0.8235294"/><path d="M-.5 44.5v-4c2.302-1.322 4.635-1.322 7 0 4.914-2.687 4.748-5.353-.5-8-2.163 1.268-4.33 1.268-6.5 0v-15c2.538-4.203 6.205-6.87 11-8a7.93 7.93 0 0 1 3.5 1c.493 1.634.66 3.3.5 5-6.964.305-9.964 3.972-9 11 8.214.399 11.714 4.732 10.5 13-2.389 6.277-6.889 8.443-13.5 6.5l-3-1.5z" fill-opacity="0.8235294"/><path d="M63.5 33.5v6c-1.632 4.615-4.965 6.949-10 7 1.148 7.59-1.518 13.257-8 17h-7c-.973-1.568-1.14-3.235-.5-5a38.053 38.053 0 0 1 6.5-2.5 9.468 9.468 0 0 0 1.5-2.5l1-12c1.865-2.173 4.031-2.507 6.5-1 4-2.667 4-5.333 0-8-4.657 1.974-6.657.641-6-4 7.116-3.786 12.45-2.12 16 5z" fill-opacity="0.8039216"/><path d="M34.5 63.5h-4a55.135 55.135 0 0 1-1.5-9c-2.796-2.483-4.963-1.817-6.5 2 1.322 2.365 1.322 4.698 0 7h-15c-3.667-1.667-6.333-4.333-8-8v-7c1.637-.718 3.303-.885 5-.5.855 7.217 4.688 10.05 11.5 8.5 1.427-8.3 6.26-11.466 14.5-9.5 6.304 4.206 7.637 9.706 4 16.5z" fill-opacity="0.81960785"/></g></svg>