<?xml version="1.0" standalone="no"?><!DOCTYPE svg PUBLIC "-//W3C//DTD SVG 1.0//EN"
  "http://www.w3.org/TR/2001/REC-SVG-20010904/DTD/svg10.dtd"><svg xmlns="http://www.w3.org/2000/svg" xmlns:xlink="http://www.w3.org/1999/xlink" id="body_1" viewBox="0 0 64 64"><g transform="matrix(1 0 0 1 0 0)"><path d="M22.5-.5h8q6.045 3.08 6 10 16.03-1.699 16.5 14-3 4-6 0-.35-3.42-2.5-6-6.72-2.457-14-2.5-2-3 0-6-4.392-7.065-8 .5 3 8-5 5-3.623-9.715 5-15" fill-opacity="0.8235294"/><path d="M-.5 44.5v-4q3.453-1.983 7 0 7.371-4.03-.5-8-3.245 1.902-6.5 0v-15q3.807-6.305 11-8a7.9 7.9 0 0 1 3.5 1q.74 2.45.5 5-10.446.458-9 11 12.321.598 10.5 13-3.584 9.415-13.5 6.5z" fill-opacity="0.8235294"/><path d="M63.5 33.5v6q-2.448 6.923-10 7 1.723 11.385-8 17h-7q-1.46-2.352-.5-5a38 38 0 0 1 6.5-2.5 9.5 9.5 0 0 0 1.5-2.5l1-12q2.797-3.26 6.5-1 6-4 0-8-6.986 2.961-6-4 10.675-5.68 16 5" fill-opacity="0.8039216"/><path d="M34.5 63.5h-4a55 55 0 0 1-1.5-9q-4.194-3.725-6.5 2 1.983 3.547 0 7h-15q-5.5-2.5-8-8v-7q2.455-1.077 5-.5Q5.782 58.825 16 56.5q2.14-12.45 14.5-9.5 9.456 6.309 4 16.5" fill-opacity="0.81960785"/></g></svg>